<svg width="58" height="59" viewBox="0 0 58 59" fill="none" xmlns="http://www.w3.org/2000/svg">
<path d="M18.6328 47.6709C21.5141 47.6713 23.8504 50.0083 23.8506 52.8896C23.8503 55.7709 21.514 58.107 18.6328 58.1074C15.7512 58.1074 13.4143 55.7712 13.4141 52.8896C13.4143 50.0081 15.7512 47.6709 18.6328 47.6709ZM47.3301 47.6709C50.2115 47.6711 52.5477 50.0082 52.5479 52.8896C52.5476 55.771 50.2114 58.1072 47.3301 58.1074C44.4487 58.1072 42.1116 55.7711 42.1113 52.8896C42.1115 50.0082 44.4486 47.6711 47.3301 47.6709ZM8.55566 0.850586C9.68705 0.94938 10.6362 1.77566 10.8779 2.90332L13.2305 13.8848H55.3916C56.1827 13.8848 56.9316 14.2444 57.4268 14.8613C57.9219 15.4784 58.1099 16.2872 57.9385 17.0596L53.6338 36.4434C53.2501 38.1811 52.2857 39.7364 50.8994 40.8525C49.512 41.9695 47.785 42.5801 46.0039 42.583H20.4844V42.582C18.6848 42.6086 16.9298 42.0158 15.5166 40.8994C14.0883 39.7709 13.0977 38.1792 12.7158 36.3994V36.3984L8.58105 17.0918C8.57153 17.0512 8.56229 17.0101 8.55469 16.9688L6.21875 6.05859H3.10938C1.66866 6.05842 0.5 4.88997 0.5 3.44922C0.500187 2.00862 1.66878 0.84002 3.10938 0.839844H8.32715L8.55566 0.850586ZM17.8184 35.3057H17.8174C17.9447 35.8984 18.2753 36.4287 18.751 36.8047C19.2271 37.1808 19.8202 37.3796 20.4268 37.3662C20.4459 37.3658 20.4653 37.3652 20.4844 37.3652H45.9961C46.5897 37.3642 47.1656 37.1603 47.6279 36.7881C48.0902 36.4158 48.4114 35.897 48.5391 35.3174L48.54 35.3125L52.1396 19.1025H14.3477L17.8184 35.3057Z" fill="#FAF3EE"/>
</svg>
