<svg width="277" height="145" viewBox="0 0 277 145" fill="none" xmlns="http://www.w3.org/2000/svg">
<path d="M69.5234 122.597C69.289 121.689 68.9667 120.854 68.5565 120.092C68.1463 119.33 67.6189 118.671 66.9743 118.114C66.3298 117.558 65.568 117.133 64.689 116.84C63.8393 116.517 62.8432 116.356 61.7005 116.356C60.0305 116.356 58.5801 116.693 57.3496 117.367C56.1483 118.041 55.1668 118.949 54.405 120.092C53.6432 121.205 53.0719 122.48 52.691 123.915C52.3394 125.351 52.1636 126.816 52.1636 128.31C52.1636 129.805 52.3394 131.27 52.691 132.705C53.0719 134.141 53.6432 135.43 54.405 136.573C55.1668 137.686 56.1483 138.58 57.3496 139.254C58.5801 139.927 60.0305 140.264 61.7005 140.264C62.9311 140.264 64.0151 140.059 64.9527 139.649C65.8903 139.21 66.696 138.624 67.3699 137.891C68.0438 137.129 68.5712 136.25 68.952 135.254C69.3329 134.258 69.582 133.189 69.6992 132.046H75.0609C74.9437 133.921 74.5335 135.635 73.8303 137.188C73.1565 138.741 72.2335 140.089 71.0616 141.231C69.8896 142.345 68.5126 143.209 66.9304 143.824C65.3482 144.439 63.605 144.747 61.7005 144.747C59.3566 144.747 57.247 144.322 55.3719 143.473C53.526 142.594 51.9585 141.407 50.6694 139.913C49.3802 138.419 48.384 136.675 47.6809 134.683C47.007 132.691 46.6701 130.566 46.6701 128.31C46.6701 126.084 47.007 123.974 47.6809 121.982C48.384 119.989 49.3802 118.246 50.6694 116.752C51.9585 115.258 53.526 114.071 55.3719 113.192C57.247 112.313 59.3566 111.874 61.7005 111.874C63.4585 111.874 65.1139 112.123 66.6667 112.621C68.2196 113.089 69.582 113.793 70.7539 114.73C71.9552 115.638 72.9221 116.752 73.6546 118.07C74.387 119.389 74.8412 120.898 75.017 122.597H69.5234ZM93.4174 116.356C91.7473 116.356 90.297 116.693 89.0665 117.367C87.8652 118.041 86.8837 118.949 86.1219 120.092C85.3601 121.205 84.7888 122.48 84.4079 123.915C84.0563 125.351 83.8805 126.816 83.8805 128.31C83.8805 129.805 84.0563 131.27 84.4079 132.705C84.7888 134.141 85.3601 135.43 86.1219 136.573C86.8837 137.686 87.8652 138.58 89.0665 139.254C90.297 139.927 91.7473 140.264 93.4174 140.264C95.0874 140.264 96.5231 139.927 97.7244 139.254C98.9549 138.58 99.9511 137.686 100.713 136.573C101.475 135.43 102.031 134.141 102.383 132.705C102.764 131.27 102.954 129.805 102.954 128.31C102.954 126.816 102.764 125.351 102.383 123.915C102.031 122.48 101.475 121.205 100.713 120.092C99.9511 118.949 98.9549 118.041 97.7244 117.367C96.5231 116.693 95.0874 116.356 93.4174 116.356ZM93.4174 111.874C95.7613 111.874 97.8562 112.313 99.7021 113.192C101.577 114.071 103.159 115.258 104.449 116.752C105.738 118.246 106.719 119.989 107.393 121.982C108.096 123.974 108.448 126.084 108.448 128.31C108.448 130.566 108.096 132.691 107.393 134.683C106.719 136.675 105.738 138.419 104.449 139.913C103.159 141.407 101.577 142.594 99.7021 143.473C97.8562 144.322 95.7613 144.747 93.4174 144.747C91.0735 144.747 88.9639 144.322 87.0888 143.473C85.2429 142.594 83.6754 141.407 82.3863 139.913C81.0971 138.419 80.1009 136.675 79.3978 134.683C78.7239 132.691 78.3869 130.566 78.3869 128.31C78.3869 126.084 78.7239 123.974 79.3978 121.982C80.1009 119.989 81.0971 118.246 82.3863 116.752C83.6754 115.258 85.2429 114.071 87.0888 113.192C88.9639 112.313 91.0735 111.874 93.4174 111.874ZM113.448 112.621H135.114V117.367H118.941V125.585H133.137V130.068H118.941V144H113.448V112.621ZM139.499 112.621H161.166V117.367H144.993V125.585H159.188V130.068H144.993V144H139.499V112.621ZM165.551 112.621H188.141V117.367H171.045V125.585H186.866V130.068H171.045V139.254H188.448V144H165.551V112.621ZM193.233 112.621H215.823V117.367H198.727V125.585H214.549V130.068H198.727V139.254H216.131V144H193.233V112.621Z" fill="#FAF3EE"/>
<path d="M36.354 73.2476C30.9158 73.2476 25.4456 72 19.9434 69.5048C14.5052 67.0096 9.93067 63.1069 6.21989 57.7966C2.57308 52.4864 0.749674 45.8645 0.749674 37.9311C0.749674 31.5972 2.1892 25.5512 5.06826 19.7931C7.94732 13.971 11.946 9.26849 17.0643 5.68566C22.1827 2.10283 27.9088 0.31142 34.2427 0.31142C36.1621 0.31142 38.0175 0.535348 39.8089 0.983203C41.6643 1.43105 43.6477 2.03886 45.759 2.80661C48.2542 3.70231 49.9496 4.15017 50.8453 4.15017C52.4448 4.15017 54.3002 3.28645 56.4115 1.55901L60.1543 17.4898L60.3462 18.4495C60.3462 18.8334 60.0903 19.1533 59.5785 19.4092C59.4505 19.4732 59.2905 19.5051 59.0986 19.5051C58.7147 19.5051 58.3629 19.3132 58.043 18.9293C55.9956 15.9223 54.0763 13.4271 52.2848 11.4438C50.5574 9.46043 48.2542 7.701 45.3751 6.16551C42.496 4.56603 39.1051 3.76629 35.2024 3.76629C29.5083 3.76629 25.1257 5.94158 22.0547 10.2922C18.9837 14.6427 16.9684 19.3452 16.0087 24.3996C15.049 29.4539 14.5692 33.7085 14.5692 37.1634C14.5692 44.0091 15.6888 49.8312 17.9281 54.6297C20.2313 59.3641 23.1424 62.915 26.6612 65.2822C30.244 67.6494 33.9868 68.833 37.8895 68.833C43.1998 68.833 47.5184 67.4895 50.8453 64.8024C54.2362 62.1152 57.4032 58.4684 60.3462 53.8619C60.6661 53.542 60.954 53.3821 61.2099 53.3821C61.3379 53.3821 61.5618 53.4781 61.8817 53.67C62.3296 53.9259 62.5535 54.2458 62.5535 54.6297C62.5535 54.7576 62.4895 54.9496 62.3615 55.2055C59.9303 59.876 56.6034 64.0666 52.3808 67.7774C48.2222 71.4242 42.8799 73.2476 36.354 73.2476ZM104.331 73.2476C94.3506 73.2476 87.089 71.2642 82.5465 67.2975C78.0679 63.2669 75.8286 57.3808 75.8286 49.6393V11.3478C75.8286 8.3408 75.0609 6.32546 73.5254 5.30179C72.0539 4.21415 70.1025 3.67032 67.6713 3.67032H66.4237C65.9759 3.67032 65.7519 3.25446 65.7519 2.42273C65.7519 1.65498 65.9759 1.27111 66.4237 1.27111H97.5176C97.9654 1.27111 98.1893 1.65498 98.1893 2.42273C98.1893 3.25446 97.9654 3.67032 97.5176 3.67032H96.3659C93.8708 3.67032 91.8874 4.21415 90.4159 5.30179C89.0083 6.32546 88.3046 8.3408 88.3046 11.3478V45.8965C88.3046 50.1191 88.6565 53.8939 89.3602 57.2208C90.064 60.5477 91.6635 63.4268 94.1587 65.858C96.6538 68.2892 100.397 69.5048 105.387 69.5048C112.617 69.5048 117.543 67.0736 120.166 62.2112C122.789 57.3488 124.101 51.2388 124.101 43.8812V12.2115C124.101 9.52441 123.237 7.4131 121.51 5.8776C119.782 4.3421 117.895 3.57435 115.848 3.57435H114.888C114.44 3.57435 114.216 3.19048 114.216 2.42273C114.216 1.65498 114.44 1.27111 114.888 1.27111H137.249C137.696 1.27111 137.92 1.65498 137.92 2.42273C137.92 3.19048 137.696 3.57435 137.249 3.57435H136.289C134.242 3.57435 132.354 4.3421 130.627 5.8776C128.899 7.4131 128.036 9.52441 128.036 12.2115L127.844 46.6643C127.844 55.1735 125.796 61.7314 121.702 66.3378C117.607 70.9443 111.817 73.2476 104.331 73.2476ZM210.779 69.6968C211.227 69.6968 211.451 70.0486 211.451 70.7524C211.451 71.5841 211.227 72 210.779 72H189.186C186.883 67.4575 183.78 61.6674 179.877 54.6297C175.975 47.528 172.616 42.0258 169.801 38.1231H169.417H163.083V61.9233C163.083 64.9303 163.819 66.9776 165.29 68.0653C166.826 69.1529 168.777 69.6968 171.144 69.6968H172.296C172.744 69.6968 172.968 70.0486 172.968 70.7524C172.968 71.5841 172.744 72 172.296 72H141.49C141.042 72 140.818 71.5841 140.818 70.7524C140.818 70.0486 141.042 69.6968 141.49 69.6968H142.738C145.105 69.6968 147.024 69.1529 148.496 68.0653C150.031 66.9776 150.799 64.9303 150.799 61.9233V11.3478C150.799 8.3408 150.031 6.32546 148.496 5.30179C147.024 4.21415 145.105 3.67032 142.738 3.67032H141.49C141.042 3.67032 140.818 3.25446 140.818 2.42273C140.818 1.65498 141.042 1.27111 141.49 1.27111C149.679 1.14315 157.517 1.07917 165.002 1.07917L176.518 1.17514C180.805 1.30309 184.804 2.10283 188.515 3.57435C192.289 5.04587 195.296 7.15718 197.536 9.90829C199.839 12.5954 200.991 15.7624 200.991 19.4092C200.991 23.8237 199.263 27.4386 195.808 30.2536C192.353 33.0047 187.971 35.0521 182.66 36.3956C184.132 38.315 186.947 42.7296 191.106 49.6393C195.328 56.741 198.335 61.5394 200.127 64.0346C201.15 65.5701 201.982 66.6897 202.622 67.3935C203.326 68.0973 204.285 68.6731 205.501 69.1209C206.781 69.5048 208.54 69.6968 210.779 69.6968ZM163.083 35.4359H165.962C180.293 35.4359 187.459 29.9337 187.459 18.9293C187.459 16.1143 186.787 13.5871 185.444 11.3478C184.1 9.04457 182.181 7.25315 179.685 5.97357C177.254 4.69399 174.407 4.0542 171.144 4.0542C168.585 4.0542 166.602 4.50205 165.194 5.39776C163.787 6.29347 163.083 7.86096 163.083 10.1002V35.4359ZM275.651 52.8063C276.099 52.9982 276.323 53.3501 276.323 53.8619C276.323 54.1178 276.259 54.3738 276.131 54.6297C276.003 54.8856 275.907 55.1095 275.843 55.3015L272.1 65.1862L269.605 72H212.888C212.376 72 212.12 71.5841 212.12 70.7524C212.12 70.0486 212.376 69.6968 212.888 69.6968H214.039C216.47 69.6968 218.422 69.1529 219.893 68.0653C221.365 66.9776 222.101 64.9303 222.101 61.9233V11.2518C222.101 8.24483 221.333 6.22949 219.797 5.20582C218.326 4.11817 216.406 3.57435 214.039 3.57435H212.888C212.376 3.57435 212.12 3.15849 212.12 2.32676C212.12 1.62299 212.376 1.27111 212.888 1.27111H267.302C268.581 3.4464 269.861 5.78163 271.141 8.27682C272.484 10.772 273.444 12.5954 274.02 13.747L274.116 14.1309C274.116 14.3868 273.892 14.6747 273.444 14.9946C273.188 15.1226 272.964 15.1866 272.772 15.1866C272.452 15.1866 272.164 15.0586 271.908 14.8027C269.221 12.0516 265.574 9.58839 260.968 7.4131C256.425 5.17383 251.851 4.0542 247.244 4.0542H245.421C242.798 4.0542 240.75 4.18216 239.279 4.43807C237.871 4.63001 236.752 5.14184 235.92 5.97357C235.088 6.8053 234.672 8.14886 234.672 10.0043V33.7085H242.446C245.965 33.7085 248.332 33.6765 249.548 33.6125C252.299 33.5486 254.442 32.5889 255.978 30.7335C257.577 28.8141 258.377 26.6388 258.377 24.2076C258.377 23.7598 258.793 23.5358 259.624 23.5358C260.072 23.5358 260.36 23.5998 260.488 23.7278C260.68 23.7917 260.776 23.9517 260.776 24.2076V46.5683C260.776 46.8242 260.68 47.0162 260.488 47.1441C260.36 47.2081 260.072 47.2401 259.624 47.2401C258.793 47.2401 258.377 47.0162 258.377 46.5683C258.377 44.1371 257.577 41.9938 255.978 40.1384C254.442 38.283 252.299 37.3233 249.548 37.2593C248.332 37.1954 245.965 37.1634 242.446 37.1634H234.672V63.0749C234.672 65.3142 235.344 66.8497 236.688 67.6814C238.095 68.4492 240.271 68.929 243.214 69.1209C243.853 69.1849 244.845 69.2169 246.189 69.2169C247.532 69.2169 248.62 69.1849 249.452 69.1209C255.082 68.801 259.784 67.1376 263.559 64.1306C267.398 61.0596 270.917 57.3488 274.116 52.9982C274.308 52.7423 274.563 52.6143 274.883 52.6143C275.139 52.6143 275.395 52.6783 275.651 52.8063Z" fill="#FAF3EE"/>
</svg>
