<svg width="408" height="194" viewBox="0 0 408 194" fill="none" xmlns="http://www.w3.org/2000/svg">
<path d="M105.627 160.906C105.286 159.587 104.818 158.374 104.222 157.267C103.626 156.16 102.86 155.203 101.924 154.394C100.987 153.585 99.8807 152.968 98.6037 152.542C97.3693 152.074 95.9221 151.84 94.2621 151.84C91.8359 151.84 89.7289 152.329 87.9412 153.308C86.196 154.287 84.7701 155.607 83.6634 157.267C82.5567 158.884 81.7267 160.736 81.1733 162.822C80.6625 164.907 80.4072 167.036 80.4072 169.206C80.4072 171.377 80.6625 173.505 81.1733 175.591C81.7267 177.677 82.5567 179.55 83.6634 181.21C84.7701 182.827 86.196 184.125 87.9412 185.104C89.7289 186.083 91.8359 186.573 94.2621 186.573C96.0498 186.573 97.6247 186.275 98.9868 185.679C100.349 185.041 101.519 184.189 102.498 183.125C103.477 182.018 104.244 180.742 104.797 179.294C105.35 177.847 105.712 176.294 105.882 174.633H113.672C113.501 177.358 112.906 179.848 111.884 182.104C110.905 184.36 109.564 186.318 107.862 187.978C106.159 189.595 104.158 190.851 101.86 191.745C99.5614 192.638 97.0288 193.085 94.2621 193.085C90.8569 193.085 87.7922 192.468 85.068 191.234C82.3864 189.957 80.1092 188.233 78.2363 186.062C76.3635 183.891 74.9163 181.359 73.8947 178.464C72.9157 175.57 72.4262 172.484 72.4262 169.206C72.4262 165.971 72.9157 162.907 73.8947 160.012C74.9163 157.118 76.3635 154.585 78.2363 152.415C80.1092 150.244 82.3864 148.52 85.068 147.243C87.7922 145.966 90.8569 145.327 94.2621 145.327C96.816 145.327 99.2209 145.689 101.477 146.413C103.733 147.094 105.712 148.115 107.415 149.478C109.16 150.797 110.564 152.415 111.629 154.33C112.693 156.245 113.352 158.437 113.608 160.906H105.627ZM140.34 151.84C137.913 151.84 135.806 152.329 134.019 153.308C132.273 154.287 130.848 155.607 129.741 157.267C128.634 158.884 127.804 160.736 127.251 162.822C126.74 164.907 126.485 167.036 126.485 169.206C126.485 171.377 126.74 173.505 127.251 175.591C127.804 177.677 128.634 179.55 129.741 181.21C130.848 182.827 132.273 184.125 134.019 185.104C135.806 186.083 137.913 186.573 140.34 186.573C142.766 186.573 144.851 186.083 146.597 185.104C148.384 184.125 149.832 182.827 150.938 181.21C152.045 179.55 152.854 177.677 153.364 175.591C153.918 173.505 154.194 171.377 154.194 169.206C154.194 167.036 153.918 164.907 153.364 162.822C152.854 160.736 152.045 158.884 150.938 157.267C149.832 155.607 148.384 154.287 146.597 153.308C144.851 152.329 142.766 151.84 140.34 151.84ZM140.34 145.327C143.745 145.327 146.788 145.966 149.47 147.243C152.194 148.52 154.492 150.244 156.365 152.415C158.238 154.585 159.664 157.118 160.643 160.012C161.665 162.907 162.175 165.971 162.175 169.206C162.175 172.484 161.665 175.57 160.643 178.464C159.664 181.359 158.238 183.891 156.365 186.062C154.492 188.233 152.194 189.957 149.47 191.234C146.788 192.468 143.745 193.085 140.34 193.085C136.934 193.085 133.87 192.468 131.146 191.234C128.464 189.957 126.187 188.233 124.314 186.062C122.441 183.891 120.994 181.359 119.972 178.464C118.993 175.57 118.504 172.484 118.504 169.206C118.504 165.971 118.993 162.907 119.972 160.012C120.994 157.118 122.441 154.585 124.314 152.415C126.187 150.244 128.464 148.52 131.146 147.243C133.87 145.966 136.934 145.327 140.34 145.327ZM169.439 146.413H200.916V153.308H177.42V165.248H198.043V171.76H177.42V192H169.439V146.413ZM207.286 146.413H238.763V153.308H215.267V165.248H235.89V171.76H215.267V192H207.286V146.413ZM245.133 146.413H277.951V153.308H253.114V165.248H276.099V171.76H253.114V185.104H278.398V192H245.133V146.413ZM285.35 146.413H318.167V153.308H293.331V165.248H316.316V171.76H293.331V185.104H318.614V192H285.35V146.413Z" fill="#FAF3EE"/>
<path d="M53.4201 107.839C45.4057 107.839 37.3442 106 29.2354 102.323C21.221 98.6456 14.4795 92.8941 9.01081 85.0682C3.63643 77.2424 0.949239 67.4836 0.949239 55.792C0.949239 46.4575 3.0707 37.5474 7.31364 29.0615C11.5566 20.4814 17.4495 13.5513 24.9925 8.27116C32.5355 2.99107 40.9742 0.351026 50.3087 0.351026C53.1373 0.351026 55.8716 0.681033 58.5117 1.34105C61.246 2.00106 64.1689 2.89679 67.2804 4.02824C70.9576 5.34826 73.4562 6.00827 74.7762 6.00827C77.1334 6.00827 79.8677 4.73539 82.9792 2.18963L88.495 25.6672L88.7779 27.0815C88.7779 27.6472 88.4008 28.1186 87.6465 28.4958C87.4579 28.5901 87.2222 28.6372 86.9393 28.6372C86.3736 28.6372 85.855 28.3544 85.3836 27.7886C82.3664 23.3571 79.5377 19.6799 76.8977 16.757C74.3519 13.8341 70.9576 11.2412 66.7147 8.97832C62.4717 6.62114 57.4745 5.44254 51.723 5.44254C43.3314 5.44254 36.8727 8.64832 32.3469 15.0599C27.8211 21.4714 24.8511 28.4015 23.4368 35.8502C22.0225 43.2989 21.3153 49.569 21.3153 54.6605C21.3153 64.7493 22.9653 73.3294 26.2654 80.401C29.6597 87.3782 33.9498 92.6112 39.1356 96.0998C44.4157 99.5885 49.9315 101.333 55.683 101.333C63.5089 101.333 69.8733 99.3527 74.7762 95.3927C79.7735 91.4326 84.4407 86.0582 88.7779 79.2695C89.2493 78.7981 89.6736 78.5624 90.0508 78.5624C90.2394 78.5624 90.5694 78.7038 91.0408 78.9867C91.7008 79.3638 92.0308 79.8353 92.0308 80.401C92.0308 80.5896 91.9365 80.8724 91.748 81.2496C88.165 88.1325 83.2621 94.3084 77.0391 99.777C70.9104 105.151 63.0375 107.839 53.4201 107.839ZM153.6 107.839C138.891 107.839 128.189 104.916 121.495 99.0699C114.895 93.1298 111.595 84.4553 111.595 73.0466V16.6156C111.595 12.1841 110.463 9.21404 108.2 7.70544C106.032 6.10256 103.156 5.30112 99.5731 5.30112H97.7345C97.0745 5.30112 96.7444 4.68825 96.7444 3.46251C96.7444 2.33106 97.0745 1.76534 97.7345 1.76534H143.558C144.218 1.76534 144.548 2.33106 144.548 3.46251C144.548 4.68825 144.218 5.30112 143.558 5.30112H141.861C138.184 5.30112 135.261 6.10256 133.092 7.70544C131.018 9.21404 129.981 12.1841 129.981 16.6156V67.5308C129.981 73.7537 130.499 79.3167 131.536 84.2196C132.574 89.1226 134.931 93.3655 138.608 96.9484C142.285 100.531 147.801 102.323 155.155 102.323C165.81 102.323 173.07 98.7399 176.936 91.574C180.802 84.4082 182.735 75.4038 182.735 64.5607V17.8885C182.735 13.9284 181.462 10.8169 178.916 8.55403C176.37 6.29113 173.589 5.15968 170.571 5.15968H169.157C168.497 5.15968 168.167 4.59396 168.167 3.46251C168.167 2.33106 168.497 1.76534 169.157 1.76534H202.111C202.771 1.76534 203.101 2.33106 203.101 3.46251C203.101 4.59396 202.771 5.15968 202.111 5.15968H200.696C197.679 5.15968 194.898 6.29113 192.352 8.55403C189.806 10.8169 188.533 13.9284 188.533 17.8885L188.25 68.6622C188.25 81.2024 185.233 90.8669 179.199 97.6556C173.164 104.444 164.631 107.839 153.6 107.839ZM310.474 102.606C311.134 102.606 311.464 103.124 311.464 104.161C311.464 105.387 311.134 106 310.474 106H278.652C275.258 99.3056 270.685 90.7726 264.934 80.401C259.182 69.9351 254.232 61.8264 250.083 56.0748H249.518H240.183V91.1497C240.183 95.5812 241.267 98.5984 243.436 100.201C245.699 101.804 248.575 102.606 252.063 102.606H253.761C254.421 102.606 254.751 103.124 254.751 104.161C254.751 105.387 254.421 106 253.761 106H208.361C207.701 106 207.371 105.387 207.371 104.161C207.371 103.124 207.701 102.606 208.361 102.606H210.2C213.688 102.606 216.517 101.804 218.686 100.201C220.949 98.5984 222.08 95.5812 222.08 91.1497V16.6156C222.08 12.1841 220.949 9.21404 218.686 7.70544C216.517 6.10256 213.688 5.30112 210.2 5.30112H208.361C207.701 5.30112 207.371 4.68825 207.371 3.46251C207.371 2.33106 207.701 1.76534 208.361 1.76534C220.43 1.57676 231.98 1.48248 243.012 1.48248L259.983 1.62391C266.301 1.81248 272.194 2.99107 277.662 5.15968C283.225 7.32829 287.657 10.4398 290.957 14.4941C294.351 18.4542 296.048 23.1214 296.048 28.4958C296.048 35.0016 293.503 40.3289 288.411 44.4775C283.32 48.5319 276.861 51.5491 269.035 53.5291C271.204 56.3577 275.352 62.8635 281.481 73.0466C287.704 83.5125 292.135 90.584 294.776 94.2612C296.284 96.5241 297.51 98.1742 298.453 99.2113C299.49 100.248 300.904 101.097 302.696 101.757C304.581 102.323 307.174 102.606 310.474 102.606ZM240.183 52.1148H244.426C265.546 52.1148 276.107 44.0061 276.107 27.7886C276.107 23.64 275.117 19.9157 273.137 16.6156C271.157 13.2212 268.328 10.5812 264.651 8.69546C261.068 6.80971 256.872 5.86684 252.063 5.86684C248.292 5.86684 245.369 6.52685 243.295 7.84687C241.22 9.1669 240.183 11.4769 240.183 14.777V52.1148ZM406.077 77.7138C406.737 77.9967 407.067 78.5152 407.067 79.2695C407.067 79.6467 406.973 80.0238 406.784 80.401C406.596 80.7781 406.454 81.1081 406.36 81.391L400.844 95.9584L397.167 106H313.581C312.827 106 312.45 105.387 312.45 104.161C312.45 103.124 312.827 102.606 313.581 102.606H315.279C318.861 102.606 321.737 101.804 323.906 100.201C326.074 98.5984 327.159 95.5812 327.159 91.1497V16.4742C327.159 12.0427 326.027 9.07261 323.764 7.56401C321.596 5.96112 318.767 5.15968 315.279 5.15968H313.581C312.827 5.15968 312.45 4.54681 312.45 3.32108C312.45 2.28392 312.827 1.76534 313.581 1.76534H393.773C395.659 4.97111 397.544 8.4126 399.43 12.0898C401.41 15.767 402.824 18.4542 403.673 20.1514L403.814 20.7171C403.814 21.0942 403.484 21.5185 402.824 21.99C402.447 22.1785 402.117 22.2728 401.834 22.2728C401.363 22.2728 400.939 22.0843 400.561 21.7071C396.601 17.6528 391.227 14.0227 384.438 10.8169C377.744 7.51687 371.002 5.86684 364.214 5.86684H361.526C357.661 5.86684 354.644 6.05541 352.475 6.43256C350.401 6.71542 348.751 7.46972 347.525 8.69546C346.299 9.92119 345.686 11.9012 345.686 14.6356V49.569H357.142C362.328 49.569 365.817 49.5219 367.608 49.4276C371.662 49.3333 374.821 47.919 377.084 45.1847C379.441 42.356 380.62 39.1503 380.62 35.5674C380.62 34.9073 381.233 34.5773 382.458 34.5773C383.118 34.5773 383.543 34.6716 383.731 34.8602C384.014 34.9545 384.155 35.1902 384.155 35.5674V68.5208C384.155 68.8979 384.014 69.1808 383.731 69.3694C383.543 69.4637 383.118 69.5108 382.458 69.5108C381.233 69.5108 380.62 69.1808 380.62 68.5208C380.62 64.9379 379.441 61.7792 377.084 59.0449C374.821 56.3106 371.662 54.8963 367.608 54.802C365.817 54.7077 362.328 54.6605 357.142 54.6605H345.686V92.8469C345.686 96.147 346.676 98.4099 348.656 99.6356C350.731 100.767 353.936 101.474 358.274 101.757C359.216 101.851 360.678 101.899 362.658 101.899C364.638 101.899 366.241 101.851 367.467 101.757C375.764 101.286 382.694 98.8342 388.257 94.4027C393.914 89.8769 399.1 84.4082 403.814 77.9967C404.097 77.6195 404.474 77.4309 404.946 77.4309C405.323 77.4309 405.7 77.5252 406.077 77.7138Z" fill="#FAF3EE"/>
</svg>
